700 404 24 0         
16 Autodesk AutoCAD 21 ASM 227.0.0.65535 OSX 24 Sat Feb 26 18:02:20 2022 
25.39999999999999858 9.999999999999999547e-07 1.000000000000000036e-10 
body $-1 -1 $-1 $24 $-1 $25 #
body $-1 -1 $-1 $26 $-1 $27 #
body $-1 -1 $-1 $28 $-1 $29 #
body $-1 -1 $-1 $30 $-1 $31 #
body $-1 -1 $-1 $32 $-1 $33 #
body $-1 -1 $-1 $34 $-1 $35 #
body $-1 -1 $-1 $36 $-1 $37 #
body $-1 -1 $-1 $38 $-1 $39 #
body $-1 -1 $-1 $40 $-1 $41 #
body $-1 -1 $-1 $42 $-1 $43 #
body $-1 -1 $-1 $44 $-1 $45 #
body $-1 -1 $-1 $46 $-1 $47 #
body $-1 -1 $-1 $48 $-1 $49 #
body $-1 -1 $-1 $50 $-1 $51 #
body $-1 -1 $-1 $52 $-1 $53 #
body $-1 -1 $-1 $54 $-1 $-1 #
body $-1 -1 $-1 $55 $-1 $-1 #
body $-1 -1 $-1 $56 $-1 $-1 #
body $-1 -1 $-1 $57 $-1 $-1 #
body $-1 -1 $-1 $58 $-1 $-1 #
body $-1 -1 $-1 $59 $-1 $-1 #
body $-1 -1 $-1 $60 $-1 $-1 #
body $-1 -1 $-1 $61 $-1 $-1 #
body $-1 -1 $-1 $62 $-1 $-1 #
lump $-1 -1 $-1 $-1 $63 $0 #
transform $-1 -1 1 -9.031367722029968846e-17 1.919676470172314941e-17 9.031367722029968846e-17 0.9135454576426005335 -0.4067366430758009299 1.9196764701723134e-17 0.4067366430758009299 0.9135454576426005335 4.500000000000002665 24.66572735635021374 -10.98188936304662455 1 rotate no_reflect no_shear #
lump $-1 -1 $-1 $-1 $64 $1 #
transform $-1 -1 1 -1.650112991752094445e-16 7.346776379283208736e-17 1.650112991752094445e-16 0.6691306063588577935 -0.7431448254773946882 7.346776379283211201e-17 0.7431448254773946882 0.6691306063588577935 4.500000000000004441 18.06652637168916087 -20.06491028788965636 1 rotate no_reflect no_shear #
lump $-1 -1 $-1 $-1 $65 $2 #
transform $-1 -1 1 -2.111769684221339909e-16 1.534290484939255285e-16 2.111769684221340156e-16 0.3090169943749472292 -0.9510565162951536422 1.534290484939255285e-16 0.9510565162951536422 0.3090169943749472292 4.500000000000005329 8.34345884812357319 -25.67852593996914834 1 rotate no_reflect no_shear #
lump $-1 -1 $-1 $-1 $66 $3 #
transform $-1 -1 1 -2.208282213463415913e-16 2.452545862547180332e-16 2.208282213463415913e-16 -0.1045284632676533459 -0.9945218953682734009 2.452545862547180825e-16 0.9945218953682734009 -0.1045284632676533459 4.500000000000006217 -2.822268508226641437 -26.85209117494338216 1 rotate no_reflect no_shear #
lump $-1 -1 $-1 $-1 $67 $4 #
transform $-1 -1 1 -1.922962686383564556e-16 3.330669073875469128e-16 1.922962686383564309e-16 -0.4999999999999996669 -0.8660254037844388186 3.330669073875469621e-16 0.8660254037844388186 -0.4999999999999996669 4.500000000000005329 -13.49999999999999112 -23.38268590217984766 1 rotate no_reflect no_shear #
lump $-1 -1 $-1 $-1 $68 $5 #
transform $-1 -1 1 -1.305145441260421e-16 4.016824638186527417e-16 1.305145441260421e-16 -0.8090169943749472292 -0.5877852522924733591 4.016824638186527417e-16 0.5877852522924733591 -0.8090169943749472292 4.500000000000003553 -21.84345884812357497 -15.87020181189677892 1 rotate no_reflect no_shear #
lump $-1 -1 $-1 $-1 $69 $6 #
transform $-1 -1 1 -4.616566924692466969e-17 4.392370024883364563e-16 4.616566924692466969e-17 -0.9781476007338055778 -0.2079116908177595091 4.392370024883364563e-16 0.2079116908177595091 -0.9781476007338055778 4.500000000000000888 -26.40998521981275005 -5.613615652079505303 1 rotate no_reflect no_shear #
lump $-1 -1 $-1 $-1 $70 $7 #
transform $-1 -1 1 4.616566924692462039e-17 4.392370024883364563e-16 -4.616566924692462039e-17 -0.9781476007338056888 0.2079116908177592871 4.392370024883365056e-16 -0.2079116908177592871 -0.9781476007338056888 4.499999999999999112 -26.4099852198127536 5.613615652079502638 1 rotate no_reflect no_shear #
lump $-1 -1 $-1 $-1 $71 $8 #
transform $-1 -1 1 1.305145441260420754e-16 4.01682463818652791e-16 -1.305145441260420754e-16 -0.8090169943749473402 0.5877852522924732481 4.01682463818652791e-16 -0.5877852522924732481 -0.8090169943749473402 4.499999999999996447 -21.84345884812357852 15.87020181189677892 1 rotate no_reflect no_shear #
lump $-1 -1 $-1 $-1 $72 $9 #
transform $-1 -1 1 1.922962686383564309e-16 3.330669073875469128e-16 -1.922962686383564309e-16 -0.499999999999999778 0.8660254037844388186 3.330669073875469621e-16 -0.8660254037844388186 -0.499999999999999778 4.499999999999994671 -13.49999999999999467 23.38268590217984766 1 rotate no_reflect no_shear #
lump $-1 -1 $-1 $-1 $73 $10 #
transform $-1 -1 1 2.208282213463415913e-16 2.452545862547180332e-16 -2.208282213463415913e-16 -0.1045284632676533321 0.9945218953682734009 2.452545862547180825e-16 -0.9945218953682734009 -0.1045284632676533321 4.499999999999993783 -2.822268508226639216 26.85209117494338216 1 rotate no_reflect no_shear #
lump $-1 -1 $-1 $-1 $74 $11 #
transform $-1 -1 1 2.111769684221339663e-16 1.534290484939254792e-16 -2.111769684221340156e-16 0.3090169943749475068 0.9510565162951536422 1.534290484939254792e-16 -0.9510565162951536422 0.3090169943749475068 4.499999999999994671 8.343458848123583849 25.67852593996914834 1 rotate no_reflect no_shear #
lump $-1 -1 $-1 $-1 $75 $12 #
transform $-1 -1 1 1.650112991752093212e-16 7.34677637928319641e-17 -1.650112991752093212e-16 0.6691306063588583486 0.7431448254773941331 7.34677637928319641e-17 -0.7431448254773941331 0.6691306063588583486 4.499999999999995559 18.06652637168917508 20.06491028788964215 1 rotate no_reflect no_shear #
lump $-1 -1 $-1 $-1 $76 $13 #
transform $-1 -1 1 9.031367722029951589e-17 1.919676470172307545e-17 -9.031367722029952822e-17 0.9135454576426009776 0.4067366430758002083 1.919676470172306005e-17 -0.4067366430758002083 0.9135454576426009776 4.499999999999997335 24.66572735635022795 10.98188936304660501 1 rotate no_reflect no_shear #
lump $-1 -1 $-1 $-1 $77 $14 #
transform $-1 -1 1 0 0 0 1 0 0 0 1 4.5 27 0 1 no_rotate no_reflect no_shear #
lump $-1 -1 $-1 $-1 $78 $15 #
lump $-1 -1 $-1 $-1 $79 $16 #
lump $-1 -1 $-1 $-1 $80 $17 #
lump $-1 -1 $-1 $-1 $81 $18 #
lump $-1 -1 $-1 $-1 $82 $19 #
lump $-1 -1 $-1 $-1 $83 $20 #
lump $-1 -1 $-1 $-1 $84 $21 #
lump $-1 -1 $-1 $-1 $85 $22 #
lump $-1 -1 $-1 $-1 $86 $23 #
shell $-1 -1 $-1 $-1 $-1 $87 $-1 $24 #
shell $-1 -1 $-1 $-1 $-1 $88 $-1 $26 #
shell $-1 -1 $-1 $-1 $-1 $89 $-1 $28 #
shell $-1 -1 $-1 $-1 $-1 $90 $-1 $30 #
shell $-1 -1 $-1 $-1 $-1 $91 $-1 $32 #
shell $-1 -1 $-1 $-1 $-1 $92 $-1 $34 #
shell $-1 -1 $-1 $-1 $-1 $93 $-1 $36 #
shell $-1 -1 $-1 $-1 $-1 $94 $-1 $38 #
shell $-1 -1 $-1 $-1 $-1 $95 $-1 $40 #
shell $-1 -1 $-1 $-1 $-1 $96 $-1 $42 #
shell $-1 -1 $-1 $-1 $-1 $97 $-1 $44 #
shell $-1 -1 $-1 $-1 $-1 $98 $-1 $46 #
shell $-1 -1 $-1 $-1 $-1 $99 $-1 $48 #
shell $-1 -1 $-1 $-1 $-1 $100 $-1 $50 #
shell $-1 -1 $-1 $-1 $-1 $101 $-1 $52 #
shell $-1 -1 $-1 $-1 $-1 $102 $-1 $54 #
shell $-1 -1 $-1 $-1 $-1 $103 $-1 $55 #
shell $-1 -1 $-1 $-1 $-1 $104 $-1 $56 #
shell $-1 -1 $-1 $-1 $-1 $105 $-1 $57 #
shell $-1 -1 $-1 $-1 $-1 $106 $-1 $58 #
shell $-1 -1 $-1 $-1 $-1 $107 $-1 $59 #
shell $-1 -1 $-1 $-1 $-1 $108 $-1 $60 #
shell $-1 -1 $-1 $-1 $-1 $109 $-1 $61 #
shell $-1 -1 $-1 $-1 $-1 $110 $-1 $62 #
face $111 -1 $-1 $-1 $-1 $63 $-1 $112 forward single #
face $113 -1 $-1 $-1 $-1 $64 $-1 $114 forward single #
face $115 -1 $-1 $-1 $-1 $65 $-1 $116 forward single #
face $117 -1 $-1 $-1 $-1 $66 $-1 $118 forward single #
face $119 -1 $-1 $-1 $-1 $67 $-1 $120 forward single #
face $121 -1 $-1 $-1 $-1 $68 $-1 $122 forward single #
face $123 -1 $-1 $-1 $-1 $69 $-1 $124 forward single #
face $125 -1 $-1 $-1 $-1 $70 $-1 $126 forward single #
face $127 -1 $-1 $-1 $-1 $71 $-1 $128 forward single #
face $129 -1 $-1 $-1 $-1 $72 $-1 $130 forward single #
face $131 -1 $-1 $-1 $-1 $73 $-1 $132 forward single #
face $133 -1 $-1 $-1 $-1 $74 $-1 $134 forward single #
face $135 -1 $-1 $-1 $-1 $75 $-1 $136 forward single #
face $137 -1 $-1 $-1 $-1 $76 $-1 $138 forward single #
face $139 -1 $-1 $-1 $-1 $77 $-1 $140 forward single #
face $141 -1 $-1 $-1 $142 $78 $-1 $143 forward double out #
face $144 -1 $-1 $-1 $145 $79 $-1 $146 forward double out #
face $147 -1 $-1 $-1 $148 $80 $-1 $149 forward double out #
face $150 -1 $-1 $-1 $151 $81 $-1 $152 forward double out #
face $153 -1 $-1 $-1 $154 $82 $-1 $155 forward double out #
face $156 -1 $-1 $-1 $157 $83 $-1 $158 forward double out #
face $159 -1 $-1 $-1 $160 $84 $-1 $161 forward double out #
face $162 -1 $-1 $-1 $163 $85 $-1 $164 forward double out #
face $165 -1 $-1 $166 $167 $86 $-1 $168 forward single #
color-adesk-attrib $-1 -1 $-1 $-1 $87 256 #
sphere-surface $-1 -1 $-1 0 0 0 2.700000000000000178 1 0 0 0 0 1 forward_v I I I I #
color-adesk-attrib $-1 -1 $-1 $-1 $88 256 #
sphere-surface $-1 -1 $-1 0 0 0 2.700000000000000178 1 0 0 0 0 1 forward_v I I I I #
color-adesk-attrib $-1 -1 $-1 $-1 $89 256 #
sphere-surface $-1 -1 $-1 0 0 0 2.700000000000000178 1 0 0 0 0 1 forward_v I I I I #
color-adesk-attrib $-1 -1 $-1 $-1 $90 256 #
sphere-surface $-1 -1 $-1 0 0 0 2.700000000000000178 1 0 0 0 0 1 forward_v I I I I #
color-adesk-attrib $-1 -1 $-1 $-1 $91 256 #
sphere-surface $-1 -1 $-1 0 0 0 2.700000000000000178 1 0 0 0 0 1 forward_v I I I I #
color-adesk-attrib $-1 -1 $-1 $-1 $92 256 #
sphere-surface $-1 -1 $-1 0 0 0 2.700000000000000178 1 0 0 0 0 1 forward_v I I I I #
color-adesk-attrib $-1 -1 $-1 $-1 $93 256 #
sphere-surface $-1 -1 $-1 0 0 0 2.700000000000000178 1 0 0 0 0 1 forward_v I I I I #
color-adesk-attrib $-1 -1 $-1 $-1 $94 256 #
sphere-surface $-1 -1 $-1 0 0 0 2.700000000000000178 1 0 0 0 0 1 forward_v I I I I #
color-adesk-attrib $-1 -1 $-1 $-1 $95 256 #
sphere-surface $-1 -1 $-1 0 0 0 2.700000000000000178 1 0 0 0 0 1 forward_v I I I I #
color-adesk-attrib $-1 -1 $-1 $-1 $96 256 #
sphere-surface $-1 -1 $-1 0 0 0 2.700000000000000178 1 0 0 0 0 1 forward_v I I I I #
color-adesk-attrib $-1 -1 $-1 $-1 $97 256 #
sphere-surface $-1 -1 $-1 0 0 0 2.700000000000000178 1 0 0 0 0 1 forward_v I I I I #
color-adesk-attrib $-1 -1 $-1 $-1 $98 256 #
sphere-surface $-1 -1 $-1 0 0 0 2.700000000000000178 1 0 0 0 0 1 forward_v I I I I #
color-adesk-attrib $-1 -1 $-1 $-1 $99 256 #
sphere-surface $-1 -1 $-1 0 0 0 2.700000000000000178 1 0 0 0 0 1 forward_v I I I I #
color-adesk-attrib $-1 -1 $-1 $-1 $100 256 #
sphere-surface $-1 -1 $-1 0 0 0 2.700000000000000178 1 0 0 0 0 1 forward_v I I I I #
color-adesk-attrib $-1 -1 $-1 $-1 $101 256 #
sphere-surface $-1 -1 $-1 0 0 0 2.700000000000000178 1 0 0 0 0 1 forward_v I I I I #
color-adesk-attrib $-1 -1 $-1 $-1 $102 256 #
loop $-1 -1 $-1 $-1 $169 $102 #
plane-surface $-1 -1 $-1 0 29.3333333333333357 0 1 0 0 0 0 -1 forward_v I I I I #
color-adesk-attrib $-1 -1 $-1 $-1 $103 256 #
loop $-1 -1 $-1 $-1 $170 $103 #
cone-surface $-1 -1 $-1 4.5 0 0 1 0 0 0 34 0 1 I I 0 -1 34 forward I I I I #
color-adesk-attrib $-1 -1 $-1 $-1 $104 256 #
loop $-1 -1 $-1 $-1 $171 $104 #
plane-surface $-1 -1 $-1 9 33.70000000000000284 0 -1 -0 -0 0 0 1 forward_v I I I I #
color-adesk-attrib $-1 -1 $-1 $-1 $105 256 #
loop $-1 -1 $-1 $-1 $172 $105 #
torus-surface $-1 -1 $-1 0.3000000000000003775 0 0 1 0 0 33.70000000000000284 0.2999999999999971578 0 0 -1 forward_v I I I I #
color-adesk-attrib $-1 -1 $-1 $-1 $106 256 #
loop $-1 -1 $-1 $-1 $173 $106 #
torus-surface $-1 -1 $-1 8.700000000000008171 0 0 1 0 0 33.70000000000000995 0.2999999999999918288 0 0 -1 forward_v I I I I #
color-adesk-attrib $-1 -1 $-1 $-1 $107 256 #
loop $-1 -1 $-1 $-1 $174 $107 #
torus-surface $-1 -1 $-1 4.5 0 0 1 0 0 27 2.699999999999999734 0 0 -1 forward_v I I I I #
color-adesk-attrib $-1 -1 $-1 $-1 $108 256 #
loop $-1 -1 $-1 $-1 $175 $108 #
cone-surface $-1 -1 $-1 1.570743870922840735 0 0 1 0 0 0 29.3333333333333357 0 1 I I 0 -1 29.3333333333333357 forward I I I I #
color-adesk-attrib $-1 -1 $-1 $-1 $109 256 #
loop $-1 -1 $-1 $-1 $176 $109 #
cone-surface $-1 -1 $-1 7.429256129077159265 0 0 1 0 0 0 29.3333333333333357 0 1 I I 0 -1 29.3333333333333357 forward I I I I #
color-adesk-attrib $-1 -1 $-1 $-1 $110 256 #
face $177 -1 $-1 $178 $179 $86 $-1 $180 forward single #
loop $-1 -1 $-1 $181 $182 $110 #
cone-surface $-1 -1 $-1 1.570743870922837182 0 0 1 0 0 0 24.6666666666666643 0 1 I I 0 1 24.6666666666666643 forward I I I I #
coedge $-1 -1 $-1 $183 $184 $185 $186 forward $142 $-1 #
coedge $-1 -1 $-1 $187 $188 $189 $190 forward $145 $-1 #
coedge $-1 -1 $-1 $191 $192 $193 $194 forward $148 $-1 #
coedge $-1 -1 $-1 $195 $196 $197 $198 forward $151 $-1 #
coedge $-1 -1 $-1 $199 $200 $201 $202 forward $154 $-1 #
coedge $-1 -1 $-1 $203 $204 $205 $206 forward $157 $-1 #
coedge $-1 -1 $-1 $207 $208 $209 $210 forward $160 $-1 #
coedge $-1 -1 $-1 $211 $212 $213 $214 forward $163 $-1 #
color-adesk-attrib $-1 -1 $-1 $-1 $166 256 #
face $215 -1 $-1 $216 $217 $86 $-1 $218 forward single #
loop $-1 -1 $-1 $219 $220 $166 #
torus-surface $-1 -1 $-1 4.499999999999996447 0 0 1 0 0 26.99999999999998224 -2.69999999999998419 0 0 -1 forward_v I I I I #
loop $-1 -1 $-1 $-1 $221 $110 #
coedge $-1 -1 $-1 $182 $182 $222 $223 reversed $167 $-1 #
coedge $-1 -1 $-1 $185 $169 $-1 $224 forward $142 $-1 #
coedge $-1 -1 $-1 $169 $185 $-1 $225 reversed $142 $-1 #
coedge $-1 -1 $-1 $184 $183 $169 $186 reversed $142 $-1 #
edge $226 -1 $-1 $227 0 $228 4.36666666666666714 $169 $229 forward @7 tangent #
coedge $-1 -1 $-1 $189 $170 $-1 $230 forward $145 $-1 #
coedge $-1 -1 $-1 $170 $189 $-1 $231 reversed $145 $-1 #
coedge $-1 -1 $-1 $188 $187 $170 $190 reversed $145 $-1 #
edge $232 -1 $-1 $233 0 $234 8.399999999999998579 $170 $235 forward @7 tangent #
coedge $-1 -1 $-1 $193 $171 $-1 $236 forward $148 $-1 #
coedge $-1 -1 $-1 $171 $193 $-1 $237 reversed $148 $-1 #
coedge $-1 -1 $-1 $192 $191 $171 $194 reversed $148 $-1 #
edge $238 -1 $-1 $239 0 $240 4.36666666666666714 $171 $241 forward @7 tangent #
coedge $-1 -1 $-1 $197 $172 $-1 $242 forward $151 $-1 #
coedge $-1 -1 $-1 $172 $197 $-1 $243 reversed $151 $-1 #
coedge $-1 -1 $-1 $196 $195 $172 $198 reversed $151 $-1 #
edge $244 -1 $-1 $245 0 $246 1.570796326794886122 $172 $247 forward @7 tangent #
coedge $-1 -1 $-1 $201 $173 $-1 $248 forward $154 $-1 #
coedge $-1 -1 $-1 $173 $201 $-1 $249 reversed $154 $-1 #
coedge $-1 -1 $-1 $200 $199 $173 $202 reversed $154 $-1 #
edge $250 -1 $-1 $251 0 $252 1.570796326794949849 $173 $253 forward @7 tangent #
coedge $-1 -1 $-1 $205 $174 $-1 $254 forward $157 $-1 #
coedge $-1 -1 $-1 $174 $205 $-1 $255 reversed $157 $-1 #
coedge $-1 -1 $-1 $204 $203 $174 $206 reversed $157 $-1 #
edge $256 -1 $-1 $257 0 $258 1.054486056401432004 $174 $259 forward @7 tangent #
coedge $-1 -1 $-1 $209 $175 $-1 $260 forward $160 $-1 #
coedge $-1 -1 $-1 $175 $209 $-1 $261 reversed $160 $-1 #
coedge $-1 -1 $-1 $208 $207 $175 $210 reversed $160 $-1 #
edge $262 -1 $-1 $263 0 $264 3.141487741845681469 $175 $265 forward @7 tangent #
coedge $-1 -1 $-1 $213 $176 $-1 $266 forward $163 $-1 #
coedge $-1 -1 $-1 $176 $213 $-1 $267 reversed $163 $-1 #
coedge $-1 -1 $-1 $212 $211 $176 $214 reversed $163 $-1 #
edge $268 -1 $-1 $269 0 $270 3.141487741845681469 $176 $271 forward @7 tangent #
color-adesk-attrib $-1 -1 $-1 $-1 $178 256 #
face $272 -1 $-1 $273 $274 $86 $-1 $275 forward single #
loop $-1 -1 $-1 $276 $277 $178 #
cone-surface $-1 -1 $-1 7.429256129077159265 0 0 1 0 0 0 24.6666666666666643 0 1 I I 0 1 24.6666666666666643 forward I I I I #
loop $-1 -1 $-1 $-1 $222 $166 #
coedge $-1 -1 $-1 $220 $220 $278 $279 reversed $179 $-1 #
coedge $-1 -1 $-1 $221 $221 $280 $281 forward $181 $-1 #
coedge $-1 -1 $-1 $222 $222 $182 $223 forward $219 $-1 #
edge $282 -1 $-1 $283 1.570796326794896558 $283 7.85398163397448279 $222 $284 forward @7 unknown #
edge $285 -1 $-1 $228 1.570796326794896558 $228 7.85398163397448279 $183 $286 forward @7 unknown #
edge $287 -1 $-1 $227 1.570796326794896558 $227 7.85398163397448279 $184 $288 forward @7 unknown #
color-adesk-attrib $-1 -1 $289 $-1 $186 256 #
vertex $-1 -1 $-1 $186 $290 #
vertex $-1 -1 $-1 $186 $291 #
straight-curve $-1 -1 $-1 0 29.3333333333333357 0 0 1 0 F 0 F 4.36666666666666714 #
edge $292 -1 $-1 $234 1.570796326794896558 $234 7.85398163397448279 $187 $293 forward @7 unknown #
edge $294 -1 $-1 $233 1.570796326794896558 $233 7.85398163397448279 $188 $295 forward @7 unknown #
color-adesk-attrib $-1 -1 $296 $-1 $190 256 #
vertex $-1 -1 $-1 $190 $297 #
vertex $-1 -1 $-1 $190 $298 #
straight-curve $-1 -1 $-1 0.2999999999999999889 34 0 1 0 0 F 0 F 8.399999999999998579 #
edge $299 -1 $-1 $240 1.570796326794896558 $240 7.85398163397448279 $191 $300 forward @7 unknown #
edge $301 -1 $-1 $239 1.570796326794896558 $239 7.85398163397448279 $192 $302 forward @7 unknown #
color-adesk-attrib $-1 -1 $303 $-1 $194 256 #
vertex $-1 -1 $-1 $194 $304 #
vertex $-1 -1 $-1 $194 $305 #
straight-curve $-1 -1 $-1 9 33.70000000000000284 0 0 -1 0 F 0 F 4.36666666666666714 #
edge $306 -1 $-1 $246 1.570796326794896558 $246 7.85398163397448279 $195 $307 forward @7 unknown #
edge $308 -1 $-1 $245 1.570796326794896558 $245 7.85398163397448279 $196 $309 forward @7 unknown #
color-adesk-attrib $-1 -1 $310 $-1 $198 256 #
vertex $-1 -1 $-1 $198 $311 #
vertex $-1 -1 $-1 $198 $312 #
ellipse-curve $-1 -1 $-1 0.3000000000000003775 33.70000000000000284 0 -0 0 1 -3.108624468950438313e-15 0.2999999999999971578 0 1 F 0 F 1.570796326794886122 #
edge $313 -1 $-1 $252 1.570796326794896558 $252 7.85398163397448279 $199 $314 forward @7 unknown #
edge $315 -1 $-1 $251 1.570796326794896558 $251 7.85398163397448279 $200 $316 forward @7 unknown #
color-adesk-attrib $-1 -1 $317 $-1 $202 256 #
vertex $-1 -1 $-1 $202 $318 #
vertex $-1 -1 $-1 $202 $319 #
ellipse-curve $-1 -1 $-1 8.700000000000008171 33.70000000000000995 0 0 0 1 0.2999999999999918288 -7.105427357601001859e-15 0 1 F 0 F 1.570796326794949849 #
edge $320 -1 $-1 $258 1.570796326794896558 $258 7.85398163397448279 $203 $321 forward @7 unknown #
edge $322 -1 $-1 $257 1.570796326794896558 $257 7.85398163397448279 $204 $323 forward @7 unknown #
color-adesk-attrib $-1 -1 $324 $-1 $206 256 #
vertex $-1 -1 $-1 $206 $325 #
vertex $-1 -1 $-1 $206 $326 #
ellipse-curve $-1 -1 $-1 4.5 27 0 0 0 1 1.358512258154322971 2.333333333333332149 0 1 F 0 F 1.054486056401432004 #
edge $327 -1 $-1 $264 1.570796326794896558 $264 7.85398163397448279 $207 $328 forward @7 unknown #
edge $329 -1 $-1 $263 1.570796326794896558 $263 7.85398163397448279 $208 $330 forward @7 unknown #
color-adesk-attrib $-1 -1 $331 $-1 $210 256 #
vertex $-1 -1 $-1 $210 $332 #
vertex $-1 -1 $-1 $210 $333 #
straight-curve $-1 -1 $-1 0 29.3333333333333357 0 1 0 0 F 0 F 3.141487741845681469 #
edge $334 -1 $-1 $270 1.570796326794896558 $270 7.85398163397448279 $211 $335 forward @7 unknown #
edge $336 -1 $-1 $269 1.570796326794896558 $269 7.85398163397448279 $212 $337 forward @7 unknown #
color-adesk-attrib $-1 -1 $338 $-1 $214 256 #
vertex $-1 -1 $-1 $214 $339 #
vertex $-1 -1 $-1 $214 $340 #
straight-curve $-1 -1 $-1 5.858512258154318531 29.3333333333333357 0 1 0 0 F 0 F 3.141487741845681469 #
color-adesk-attrib $-1 -1 $-1 $-1 $216 256 #
face $341 -1 $-1 $342 $343 $86 $-1 $344 forward single #
loop $-1 -1 $-1 $345 $346 $216 #
plane-surface $-1 -1 $-1 9 20.29999999999999716 0 1 0 0 0 0 -1 forward_v I I I I #
loop $-1 -1 $-1 $-1 $278 $178 #
coedge $-1 -1 $-1 $277 $277 $347 $348 reversed $217 $-1 #
coedge $-1 -1 $-1 $278 $278 $220 $279 forward $276 $-1 #
edge $349 -1 $-1 $350 1.570796326794896558 $350 7.85398163397448279 $278 $351 forward @7 unknown #
coedge $-1 -1 $-1 $280 $280 $221 $281 reversed $352 $-1 #
edge $353 -1 $-1 $354 1.570796326794896558 $354 7.85398163397448279 $280 $355 forward @7 unknown #
color-adesk-attrib $-1 -1 $-1 $-1 $223 256 #
vertex $-1 -1 $-1 $223 $356 #
ellipse-curve $-1 -1 $-1 3.141487741845674364 0 0 1 0 0 0 0 -24.66666666666666785 1 I I #
color-adesk-attrib $-1 -1 $-1 $-1 $224 256 #
ellipse-curve $-1 -1 $-1 0 0 0 1 0 0 0 0 -33.70000000000000284 1 I I #
color-adesk-attrib $-1 -1 $-1 $-1 $225 256 #
ellipse-curve $-1 -1 $-1 0 0 0 1 0 0 0 0 -29.3333333333333357 1 I I #
int64_attrib-name_attrib-gen-attrib $-1 -1 $-1 $226 $186 copy keep_all ignore copy @18 AcProfileEdgeIndex 0 #
point $-1 -1 $-1 0 29.3333333333333357 0 #
point $-1 -1 $-1 0 33.70000000000000284 0 #
color-adesk-attrib $-1 -1 $-1 $-1 $230 256 #
ellipse-curve $-1 -1 $-1 8.699999999999999289 0 0 1 0 0 0 0 -34 1 I I #
color-adesk-attrib $-1 -1 $-1 $-1 $231 256 #
ellipse-curve $-1 -1 $-1 0.2999999999999998224 0 0 1 0 0 0 0 -34 1 I I #
int64_attrib-name_attrib-gen-attrib $-1 -1 $-1 $232 $190 copy keep_all ignore copy @18 AcProfileEdgeIndex 0 #
point $-1 -1 $-1 0.2999999999999999889 34 0 #
point $-1 -1 $-1 8.699999999999999289 34 0 #
color-adesk-attrib $-1 -1 $-1 $-1 $236 256 #
ellipse-curve $-1 -1 $-1 9 0 0 1 0 0 0 0 -29.3333333333333357 1 I I #
color-adesk-attrib $-1 -1 $-1 $-1 $237 256 #
ellipse-curve $-1 -1 $-1 9 0 0 1 0 0 0 0 -33.70000000000000284 1 I I #
int64_attrib-name_attrib-gen-attrib $-1 -1 $-1 $238 $194 copy keep_all ignore copy @18 AcProfileEdgeIndex 0 #
point $-1 -1 $-1 9 33.70000000000000284 0 #
point $-1 -1 $-1 9 29.3333333333333357 0 #
color-adesk-attrib $-1 -1 $-1 $-1 $242 256 #
ellipse-curve $-1 -1 $-1 3.219646771412953967e-15 0 0 1 0 0 0 0 -33.70000000000000284 1 I I #
color-adesk-attrib $-1 -1 $-1 $-1 $243 256 #
ellipse-curve $-1 -1 $-1 0.2999999999999972689 0 0 1 0 0 0 0 -34 1 I I #
int64_attrib-name_attrib-gen-attrib $-1 -1 $-1 $244 $198 copy keep_all ignore copy @18 AcProfileEdgeIndex 0 #
point $-1 -1 $-1 0.2999999999999972689 34 0 #
point $-1 -1 $-1 3.219646771412953967e-15 33.70000000000000284 0 #
color-adesk-attrib $-1 -1 $-1 $-1 $248 256 #
ellipse-curve $-1 -1 $-1 8.699999999999999289 0 0 1 0 0 0 0 -34 1 I I #
color-adesk-attrib $-1 -1 $-1 $-1 $249 256 #
ellipse-curve $-1 -1 $-1 9 0 0 1 0 0 0 0 -33.70000000000000284 1 I I #
int64_attrib-name_attrib-gen-attrib $-1 -1 $-1 $250 $202 copy keep_all ignore copy @18 AcProfileEdgeIndex 0 #
point $-1 -1 $-1 9 33.70000000000000284 0 #
point $-1 -1 $-1 8.699999999999999289 34 0 #
color-adesk-attrib $-1 -1 $-1 $-1 $254 256 #
ellipse-curve $-1 -1 $-1 3.141487741845677473 0 0 1 0 0 0 0 -29.33333333333333215 1 I I #
color-adesk-attrib $-1 -1 $-1 $-1 $255 256 #
ellipse-curve $-1 -1 $-1 5.858512258154322971 0 0 1 0 0 0 0 -29.33333333333333215 1 I I #
int64_attrib-name_attrib-gen-attrib $-1 -1 $-1 $256 $206 copy keep_all ignore copy @18 AcProfileEdgeIndex 0 #
point $-1 -1 $-1 5.858512258154322971 29.33333333333333215 0 #
point $-1 -1 $-1 3.141487741845677473 29.33333333333333215 0 #
color-adesk-attrib $-1 -1 $-1 $-1 $260 256 #
ellipse-curve $-1 -1 $-1 3.141487741845681469 0 0 1 0 0 0 0 -29.3333333333333357 1 I I #
color-adesk-attrib $-1 -1 $-1 $-1 $261 256 #
ellipse-curve $-1 -1 $-1 0 0 0 1 0 0 0 0 -29.3333333333333357 1 I I #
int64_attrib-name_attrib-gen-attrib $-1 -1 $-1 $262 $210 copy keep_all ignore copy @18 AcProfileEdgeIndex 0 #
point $-1 -1 $-1 0 29.3333333333333357 0 #
point $-1 -1 $-1 3.141487741845681469 29.3333333333333357 0 #
color-adesk-attrib $-1 -1 $-1 $-1 $266 256 #
ellipse-curve $-1 -1 $-1 9 0 0 1 0 0 0 0 -29.3333333333333357 1 I I #
color-adesk-attrib $-1 -1 $-1 $-1 $267 256 #
ellipse-curve $-1 -1 $-1 5.858512258154318531 0 0 1 0 0 0 0 -29.3333333333333357 1 I I #
int64_attrib-name_attrib-gen-attrib $-1 -1 $-1 $268 $214 copy keep_all ignore copy @18 AcProfileEdgeIndex 0 #
point $-1 -1 $-1 5.858512258154318531 29.3333333333333357 0 #
point $-1 -1 $-1 9 29.3333333333333357 0 #
color-adesk-attrib $-1 -1 $-1 $-1 $273 256 #
face $357 -1 $-1 $358 $359 $86 $-1 $360 forward single #
loop $-1 -1 $-1 $361 $362 $273 #
torus-surface $-1 -1 $-1 8.700000000000002842 0 0 1 0 0 20.29999999999999716 0.2999999999999971578 0 0 -1 forward_v I I I I #
loop $-1 -1 $-1 $-1 $347 $216 #
coedge $-1 -1 $-1 $346 $346 $363 $364 reversed $274 $-1 #
coedge $-1 -1 $-1 $347 $347 $277 $348 forward $345 $-1 #
edge $365 -1 $-1 $366 1.570796326794896558 $366 7.85398163397448279 $347 $367 forward @7 unknown #
color-adesk-attrib $-1 -1 $-1 $-1 $279 256 #
vertex $-1 -1 $-1 $279 $368 #
ellipse-curve $-1 -1 $-1 5.858512258154316754 0 0 1 0 0 0 0 -24.6666666666666643 1 I I #
loop $-1 -1 $-1 $369 $280 $370 #
color-adesk-attrib $-1 -1 $-1 $-1 $281 256 #
vertex $-1 -1 $-1 $281 $371 #
ellipse-curve $-1 -1 $-1 0 0 0 1 0 0 0 0 -24.6666666666666643 1 I I #
point $-1 -1 $-1 3.141487741845674364 24.66666666666666785 0 #
color-adesk-attrib $-1 -1 $-1 $-1 $342 256 #
face $372 -1 $-1 $370 $373 $86 $-1 $374 forward single #
loop $-1 -1 $-1 $375 $376 $342 #
cone-surface $-1 -1 $-1 4.5 0 0 1 0 0 0 20 0 1 I I 0 -1 20 forward I I I I #
loop $-1 -1 $-1 $-1 $363 $273 #
coedge $-1 -1 $-1 $362 $362 $377 $378 reversed $343 $-1 #
coedge $-1 -1 $-1 $363 $363 $346 $364 forward $361 $-1 #
edge $379 -1 $-1 $380 1.570796326794896558 $380 7.85398163397448279 $363 $381 forward @7 tangent #
color-adesk-attrib $-1 -1 $-1 $-1 $348 256 #
vertex $-1 -1 $-1 $348 $382 #
ellipse-curve $-1 -1 $-1 9 0 0 1 0 0 0 0 -24.6666666666666643 1 I I #
point $-1 -1 $-1 5.858512258154316754 24.6666666666666643 0 #
loop $-1 -1 $-1 $-1 $383 $370 #
face $384 -1 $-1 $-1 $352 $86 $-1 $385 forward single #
point $-1 -1 $-1 0 24.6666666666666643 0 #
color-adesk-attrib $-1 -1 $-1 $-1 $358 256 #
loop $-1 -1 $-1 $386 $387 $358 #
torus-surface $-1 -1 $-1 0.2999999999999977129 0 0 1 0 0 20.29999999999999716 0.2999999999999971578 0 0 -1 forward_v I I I I #
loop $-1 -1 $-1 $-1 $377 $342 #
coedge $-1 -1 $-1 $376 $376 $388 $389 reversed $359 $-1 #
coedge $-1 -1 $-1 $377 $377 $362 $378 forward $375 $-1 #
edge $390 -1 $-1 $391 1.570796326794896558 $391 7.85398163397448279 $377 $392 forward @7 tangent #
color-adesk-attrib $-1 -1 $-1 $-1 $364 256 #
vertex $-1 -1 $-1 $364 $393 #
ellipse-curve $-1 -1 $-1 9 0 0 1 0 0 0 0 -20.29999999999999716 1 I I #
point $-1 -1 $-1 9 24.6666666666666643 0 #
coedge $-1 -1 $-1 $383 $383 $387 $394 forward $369 $-1 #
color-adesk-attrib $-1 -1 $-1 $-1 $370 256 #
plane-surface $-1 -1 $-1 0 24.6666666666666643 0 -1 -0 -0 0 0 1 forward_v I I I I #
loop $-1 -1 $-1 $-1 $388 $358 #
coedge $-1 -1 $-1 $387 $387 $383 $394 reversed $373 $-1 #
coedge $-1 -1 $-1 $388 $388 $376 $389 forward $386 $-1 #
edge $395 -1 $-1 $396 1.570796326794896558 $396 7.85398163397448279 $388 $397 forward @7 tangent #
color-adesk-attrib $-1 -1 $-1 $-1 $378 256 #
vertex $-1 -1 $-1 $378 $398 #
ellipse-curve $-1 -1 $-1 8.699999999999999289 0 0 1 0 0 0 0 -20 1 I I #
point $-1 -1 $-1 9 20.29999999999999716 0 #
edge $399 -1 $-1 $400 1.570796326794896558 $400 7.85398163397448279 $383 $401 forward @7 tangent #
color-adesk-attrib $-1 -1 $-1 $-1 $389 256 #
vertex $-1 -1 $-1 $389 $402 #
ellipse-curve $-1 -1 $-1 0.3000000000000007105 0 0 1 0 0 0 0 -20 1 I I #
point $-1 -1 $-1 8.699999999999999289 20 0 #
color-adesk-attrib $-1 -1 $-1 $-1 $394 256 #
vertex $-1 -1 $-1 $394 $403 #
ellipse-curve $-1 -1 $-1 0 0 0 1 0 0 0 0 -20.29999999999999716 1 I I #
point $-1 -1 $-1 0.3000000000000007105 20 0 #
point $-1 -1 $-1 0 20.29999999999999716 0 #
